<mxfile host="app.diagrams.net" agent="Mozilla/5.0 (Macintosh; Intel Mac OS X 10_15_7) AppleWebKit/537.36 (KHTML, like Gecko) Chrome/135.0.0.0 Safari/537.36" version="27.0.5">
  <diagram name="第 1 页" id="XlZd7ssXqbaH0jovwOkl">
    <mxGraphModel dx="1018" dy="655" grid="1" gridSize="10" guides="1" tooltips="1" connect="1" arrows="1" fold="1" page="1" pageScale="1" pageWidth="827" pageHeight="1169" math="0" shadow="0">
      <root>
        <mxCell id="0" />
        <mxCell id="1" parent="0" />
        <mxCell id="IaCY0-YW9xG4fJuwoxT6-8" style="edgeStyle=orthogonalEdgeStyle;rounded=0;orthogonalLoop=1;jettySize=auto;html=1;entryX=0.5;entryY=1;entryDx=0;entryDy=0;" edge="1" parent="1" source="IaCY0-YW9xG4fJuwoxT6-1" target="IaCY0-YW9xG4fJuwoxT6-5">
          <mxGeometry relative="1" as="geometry" />
        </mxCell>
        <mxCell id="IaCY0-YW9xG4fJuwoxT6-10" style="edgeStyle=orthogonalEdgeStyle;rounded=0;orthogonalLoop=1;jettySize=auto;html=1;entryX=0.5;entryY=1;entryDx=0;entryDy=0;" edge="1" parent="1" source="IaCY0-YW9xG4fJuwoxT6-1" target="IaCY0-YW9xG4fJuwoxT6-6">
          <mxGeometry relative="1" as="geometry" />
        </mxCell>
        <mxCell id="IaCY0-YW9xG4fJuwoxT6-11" style="edgeStyle=orthogonalEdgeStyle;rounded=0;orthogonalLoop=1;jettySize=auto;html=1;entryX=0.5;entryY=1;entryDx=0;entryDy=0;" edge="1" parent="1" source="IaCY0-YW9xG4fJuwoxT6-1" target="IaCY0-YW9xG4fJuwoxT6-7">
          <mxGeometry relative="1" as="geometry" />
        </mxCell>
        <mxCell id="IaCY0-YW9xG4fJuwoxT6-1" value="" style="rounded=0;whiteSpace=wrap;html=1;" vertex="1" parent="1">
          <mxGeometry x="90" y="400" width="190" height="120" as="geometry" />
        </mxCell>
        <mxCell id="IaCY0-YW9xG4fJuwoxT6-2" value="replication controller" style="text;html=1;align=center;verticalAlign=middle;whiteSpace=wrap;rounded=0;" vertex="1" parent="1">
          <mxGeometry x="120" y="530" width="120" height="30" as="geometry" />
        </mxCell>
        <mxCell id="IaCY0-YW9xG4fJuwoxT6-3" value="&lt;font style=&quot;background-color: light-dark(#ffffff, var(--ge-dark-color, #121212));&quot;&gt;&lt;span style=&quot;box-sizing: border-box; text-wrap-style: initial; word-break: break-word; font-family: Consolas, Monaco, &amp;quot;Andale Mono&amp;quot;, &amp;quot;Ubuntu Mono&amp;quot;, monospace; white-space-collapse: preserve;&quot;&gt;&lt;span style=&quot;box-sizing: border-box; text-wrap-style: initial; word-break: break-word; color: rgb(0, 119, 170);&quot; class=&quot;token key&quot;&gt;template&lt;/span&gt;&lt;span style=&quot;box-sizing: border-box; text-wrap-style: initial; word-break: break-word; color: rgb(153, 153, 153);&quot; class=&quot;token&quot;&gt;:&lt;/span&gt;&lt;span style=&quot;box-sizing: border-box; text-wrap-style: initial; word-break: break-word;&quot;&gt;                 &lt;/span&gt;&lt;span style=&quot;box-sizing: border-box; text-wrap-style: initial; word-break: break-word;&quot;&gt;&lt;br&gt;&lt;/span&gt;&lt;/span&gt;&lt;span style=&quot;box-sizing: border-box; text-wrap-style: initial; word-break: break-word; font-family: Consolas, Monaco, &amp;quot;Andale Mono&amp;quot;, &amp;quot;Ubuntu Mono&amp;quot;, monospace; white-space-collapse: preserve;&quot;&gt;&lt;span style=&quot;box-sizing: border-box; text-wrap-style: initial; word-break: break-word;&quot;&gt;    &lt;/span&gt;&lt;span style=&quot;box-sizing: border-box; text-wrap-style: initial; word-break: break-word; color: rgb(0, 119, 170);&quot; class=&quot;token key&quot;&gt;metadata&lt;/span&gt;&lt;span style=&quot;box-sizing: border-box; text-wrap-style: initial; word-break: break-word; color: rgb(153, 153, 153);&quot; class=&quot;token&quot;&gt;:&lt;/span&gt;&lt;span style=&quot;box-sizing: border-box; text-wrap-style: initial; word-break: break-word;&quot;&gt;&lt;br&gt;&lt;/span&gt;&lt;/span&gt;&lt;span style=&quot;box-sizing: border-box; text-wrap-style: initial; word-break: break-word; font-family: Consolas, Monaco, &amp;quot;Andale Mono&amp;quot;, &amp;quot;Ubuntu Mono&amp;quot;, monospace; white-space-collapse: preserve;&quot;&gt;&lt;span style=&quot;box-sizing: border-box; text-wrap-style: initial; word-break: break-word;&quot;&gt;      &lt;/span&gt;&lt;span style=&quot;box-sizing: border-box; text-wrap-style: initial; word-break: break-word; color: rgb(0, 119, 170);&quot; data-spm-anchor-id=&quot;60902afd.2ef5001f.0.i4.655a3d33Okxrpd&quot; class=&quot;token key&quot;&gt;labels&lt;/span&gt;&lt;span style=&quot;box-sizing: border-box; text-wrap-style: initial; word-break: break-word; color: rgb(153, 153, 153);&quot; class=&quot;token&quot;&gt;:&lt;/span&gt;&lt;span style=&quot;box-sizing: border-box; text-wrap-style: initial; word-break: break-word;&quot;&gt;&lt;br&gt;&lt;/span&gt;&lt;/span&gt;&lt;span style=&quot;box-sizing: border-box; text-wrap-style: initial; word-break: break-word; font-family: Consolas, Monaco, &amp;quot;Andale Mono&amp;quot;, &amp;quot;Ubuntu Mono&amp;quot;, monospace; white-space-collapse: preserve;&quot;&gt;&lt;span style=&quot;box-sizing: border-box; text-wrap-style: initial; word-break: break-word;&quot;&gt;        &lt;/span&gt;&lt;span style=&quot;box-sizing: border-box; text-wrap-style: initial; word-break: break-word; color: rgb(0, 119, 170);&quot; class=&quot;token key&quot;&gt;app&lt;/span&gt;&lt;span style=&quot;box-sizing: border-box; text-wrap-style: initial; word-break: break-word; color: rgb(153, 153, 153);&quot; class=&quot;token&quot;&gt;:&lt;/span&gt;&lt;span style=&quot;box-sizing: border-box; text-wrap-style: initial; word-break: break-word;&quot;&gt; webapp       &lt;/span&gt;&lt;span style=&quot;box-sizing: border-box; text-wrap-style: initial; word-break: break-word;&quot;&gt;&lt;br&gt;&lt;/span&gt;&lt;/span&gt;&lt;span style=&quot;box-sizing: border-box; text-wrap-style: initial; word-break: break-word; font-family: Consolas, Monaco, &amp;quot;Andale Mono&amp;quot;, &amp;quot;Ubuntu Mono&amp;quot;, monospace; white-space-collapse: preserve;&quot;&gt;&lt;span style=&quot;box-sizing: border-box; text-wrap-style: initial; word-break: break-word;&quot;&gt;    &lt;/span&gt;&lt;span style=&quot;box-sizing: border-box; text-wrap-style: initial; word-break: break-word; color: rgb(0, 119, 170);&quot; class=&quot;token key&quot;&gt;spec&lt;/span&gt;&lt;span style=&quot;box-sizing: border-box; text-wrap-style: initial; word-break: break-word; color: rgb(153, 153, 153);&quot; class=&quot;token&quot;&gt;:&lt;/span&gt;&lt;span style=&quot;box-sizing: border-box; text-wrap-style: initial; word-break: break-word;&quot;&gt;&lt;br&gt;&lt;/span&gt;&lt;/span&gt;&lt;span style=&quot;box-sizing: border-box; text-wrap-style: initial; word-break: break-word; font-family: Consolas, Monaco, &amp;quot;Andale Mono&amp;quot;, &amp;quot;Ubuntu Mono&amp;quot;, monospace; white-space-collapse: preserve;&quot;&gt;&lt;span style=&quot;box-sizing: border-box; text-wrap-style: initial; word-break: break-word;&quot;&gt;      &lt;/span&gt;&lt;span style=&quot;box-sizing: border-box; text-wrap-style: initial; word-break: break-word; color: rgb(0, 119, 170);&quot; class=&quot;token key&quot;&gt;containers&lt;/span&gt;&lt;span style=&quot;box-sizing: border-box; text-wrap-style: initial; word-break: break-word; color: rgb(153, 153, 153);&quot; class=&quot;token&quot;&gt;:&lt;/span&gt;&lt;/span&gt;&lt;span style=&quot;box-sizing: border-box; text-wrap-style: initial; word-break: break-word; font-family: Consolas, Monaco, &amp;quot;Andale Mono&amp;quot;, &amp;quot;Ubuntu Mono&amp;quot;, monospace; white-space-collapse: preserve;&quot;&gt;&lt;span style=&quot;box-sizing: border-box; text-wrap-style: initial; word-break: break-word;&quot;&gt;&lt;br&gt;&lt;div style=&quot;&quot;&gt;&lt;span style=&quot;color: light-dark(rgb(0, 0, 0), rgb(255, 255, 255)); box-sizing: border-box; text-wrap-style: initial; word-break: break-word;&quot;&gt;          &lt;/span&gt;&lt;span style=&quot;box-sizing: border-box; text-wrap-style: initial; word-break: break-word; color: rgb(0, 119, 170);&quot; class=&quot;token key&quot;&gt;image&lt;/span&gt;&lt;span style=&quot;box-sizing: border-box; text-wrap-style: initial; word-break: break-word; color: rgb(153, 153, 153);&quot; class=&quot;token&quot;&gt;:&lt;/span&gt;&lt;span style=&quot;color: light-dark(rgb(0, 0, 0), rgb(255, 255, 255)); box-sizing: border-box; text-wrap-style: initial; word-break: break-word;&quot;&gt; nginx&lt;/span&gt;&lt;span style=&quot;box-sizing: border-box; text-wrap-style: initial; word-break: break-word; color: rgb(153, 153, 153);&quot; class=&quot;token&quot;&gt;:&lt;/span&gt;&lt;span style=&quot;color: light-dark(rgb(0, 0, 0), rgb(255, 255, 255)); box-sizing: border-box; text-wrap-style: initial; word-break: break-word;&quot;&gt;V1&lt;/span&gt;&lt;/div&gt;&lt;/span&gt;&lt;/span&gt;&lt;/font&gt;" style="text;html=1;align=left;verticalAlign=middle;whiteSpace=wrap;rounded=0;" vertex="1" parent="1">
          <mxGeometry x="90" y="405" width="190" height="115" as="geometry" />
        </mxCell>
        <mxCell id="IaCY0-YW9xG4fJuwoxT6-5" value="Pod:nginx:V1" style="rounded=1;whiteSpace=wrap;html=1;" vertex="1" parent="1">
          <mxGeometry x="50" y="290" width="80" height="50" as="geometry" />
        </mxCell>
        <mxCell id="IaCY0-YW9xG4fJuwoxT6-6" value="Pod:nginx:V1" style="rounded=1;whiteSpace=wrap;html=1;" vertex="1" parent="1">
          <mxGeometry x="145" y="290" width="80" height="50" as="geometry" />
        </mxCell>
        <mxCell id="IaCY0-YW9xG4fJuwoxT6-7" value="Pod:nginx:V1" style="rounded=1;whiteSpace=wrap;html=1;" vertex="1" parent="1">
          <mxGeometry x="250" y="290" width="80" height="50" as="geometry" />
        </mxCell>
        <mxCell id="IaCY0-YW9xG4fJuwoxT6-13" style="edgeStyle=orthogonalEdgeStyle;rounded=0;orthogonalLoop=1;jettySize=auto;html=1;entryX=0.5;entryY=0;entryDx=0;entryDy=0;" edge="1" parent="1" source="IaCY0-YW9xG4fJuwoxT6-12" target="IaCY0-YW9xG4fJuwoxT6-5">
          <mxGeometry relative="1" as="geometry" />
        </mxCell>
        <mxCell id="IaCY0-YW9xG4fJuwoxT6-14" style="edgeStyle=orthogonalEdgeStyle;rounded=0;orthogonalLoop=1;jettySize=auto;html=1;entryX=0.5;entryY=0;entryDx=0;entryDy=0;" edge="1" parent="1" source="IaCY0-YW9xG4fJuwoxT6-12" target="IaCY0-YW9xG4fJuwoxT6-6">
          <mxGeometry relative="1" as="geometry" />
        </mxCell>
        <mxCell id="IaCY0-YW9xG4fJuwoxT6-15" style="edgeStyle=orthogonalEdgeStyle;rounded=0;orthogonalLoop=1;jettySize=auto;html=1;" edge="1" parent="1" source="IaCY0-YW9xG4fJuwoxT6-12" target="IaCY0-YW9xG4fJuwoxT6-7">
          <mxGeometry relative="1" as="geometry">
            <Array as="points">
              <mxPoint x="185" y="250" />
              <mxPoint x="290" y="250" />
            </Array>
          </mxGeometry>
        </mxCell>
        <mxCell id="IaCY0-YW9xG4fJuwoxT6-12" value="service" style="ellipse;shape=cloud;whiteSpace=wrap;html=1;" vertex="1" parent="1">
          <mxGeometry x="125" y="130" width="120" height="80" as="geometry" />
        </mxCell>
      </root>
    </mxGraphModel>
  </diagram>
</mxfile>
